<svg width="140" height="62" viewBox="0 0 140 62" fill="none" xmlns="http://www.w3.org/2000/svg">
<path fill-rule="evenodd" clip-rule="evenodd" d="M30.1459 15.697C49.8533 4.71075 76.4838 2.79763 98.1299 3.61936C119.63 4.43542 136.215 7.9466 136.215 7.9466C136.215 7.9466 108.414 0.369326 76.058 0.606338C76.0481 0.606338 76.0378 0.605983 76.0275 0.605628C76.0172 0.605273 76.0069 0.604918 75.997 0.604918C34.0246 0.604918 0 14.2139 0 31.0034C0 31.054 0.00483731 31.1655 0.00886374 31.2583C0.0117341 31.3244 0.0141923 31.3811 0.0141923 31.3994C0.262558 39.1399 7.73623 46.1807 19.8692 51.4943L17.0364 43.1634C18.3379 44.5727 19.8607 45.921 21.5822 47.211C28.4641 52.3586 38.5179 56.4616 50.4551 58.9041C58.2878 60.5064 66.921 61.3991 75.997 61.3991C77.5832 61.3991 79.1481 61.3403 80.7004 61.282C81.4495 61.2539 82.1956 61.2259 82.9398 61.2046C86.2552 61.1067 91.2949 60.5603 91.2949 60.5603C91.2949 60.5603 81.0778 60.6412 68.2948 58.193C15.041 47.1798 23.9311 22.102 39.0388 13.0274C14.6677 24.0676 17.7858 35.1022 22.1457 40.9494C14.1597 33.3083 14.6167 24.3529 30.1459 15.697ZM137.095 2.42304V5.46871H137.386V2.75372H137.394L138.412 5.46871H138.687L139.701 2.75372H139.712V5.46871H140V2.42304H139.56L138.564 5.11106H138.557L137.54 2.42304H137.095ZM136.69 2.42442H134.438V2.66995H135.422V5.46867H135.711V2.66995H136.69V2.42442ZM49.7923 25.6543H44.9016V45.0183H49.7923V25.6543ZM44.903 20.4444H49.7923V15.7538H44.903V20.4444ZM55.675 26.6492V27.0807L55.6835 27.5178C55.7105 28.3863 56.1348 28.8164 56.9651 28.8079C57.8351 28.8164 58.2864 28.3182 58.3219 27.3304L58.3275 26.5953V25.9325C58.3275 25.6387 58.3176 25.3634 58.2821 25.1051C58.2424 24.7758 58.1345 24.5062 57.9656 24.2947C57.6988 23.9882 57.1467 23.8349 56.3208 23.8349H55.3457V21.8295H56.2356C57.1837 21.8508 57.8124 21.6578 58.1132 21.2448C58.2509 21.0475 58.3233 20.8133 58.329 20.5309V19.8681V18.9669C58.329 18.0643 57.9188 17.6215 57.09 17.6343C56.2356 17.6499 55.8113 18.0785 55.8226 18.9258V19.3984H52.591V19.0294C52.5853 18.6149 52.6308 18.2147 52.7372 17.823C52.9941 16.7543 53.7108 16.0958 54.8703 15.8517C55.553 15.7055 56.2697 15.6289 57.0176 15.6289C57.7996 15.6289 58.4822 15.6842 59.0783 15.7907C60.3017 16.0121 61.0681 16.6805 61.369 17.7904C61.4924 18.263 61.5577 18.7015 61.5634 19.1131V19.6822C61.5563 21.2632 61.0894 22.2297 60.1612 22.5845L59.5311 22.8074C60.77 23.0713 61.4399 23.8136 61.5364 25.0299L61.5634 25.9424V26.5939C61.5563 27.39 61.5208 27.9535 61.4669 28.2813C61.3576 28.91 61.095 29.4125 60.6735 29.7928C59.9228 30.4712 58.7164 30.8104 57.0431 30.8104C56.3733 30.8146 55.7403 30.7607 55.1414 30.6415C54.4814 30.5308 53.9407 30.3222 53.5263 30.0241C53.1034 29.7218 52.828 29.3372 52.6889 28.8689C52.5626 28.5127 52.4832 28.1139 52.469 27.6739L52.4448 27.1048V26.6478H55.675V26.6492ZM54.2103 36.4264H55.3826V44.9403H54.2103V36.4264ZM58.5092 36.4264L60.7204 43.7624V36.4264H61.8188V44.9389H59.9809L57.774 37.6824V44.9389H56.6755V36.4264H58.5092ZM67.852 37.3872V36.4264H62.7428V37.3872H64.7112V44.9389H65.8835V37.3872H67.852ZM68.8298 36.4264H72.6646V37.3872H70.0021V40.0851H72.5028V41.046H70.0021V43.9795H72.7413V44.9389H68.8298V36.4264ZM75.2731 40.1134V37.387H76.1815C76.7023 37.3885 77.0571 37.4608 77.2501 37.5971C77.5099 37.7802 77.6418 38.1123 77.6418 38.5877C77.6418 39.0263 77.595 39.3385 77.507 39.5287C77.3722 39.8139 77.121 39.9927 76.7591 40.058C76.5732 40.0964 76.3603 40.1134 76.1133 40.1134H75.2731ZM76.7548 36.4262H76.0537V36.4248H74.1023V44.9388H75.2731V41.0742H76.0835C76.3106 41.0742 76.5164 41.0969 76.6981 41.1452C77.1196 41.2686 77.3566 41.6334 77.4119 42.2465L77.4517 43.0441L77.4942 43.8105C77.5056 44.0475 77.5283 44.2433 77.5595 44.3952L77.6759 44.9388H78.8964C78.8056 44.6407 78.7503 44.4122 78.7261 44.2575C78.685 44.0418 78.6495 43.7424 78.6311 43.3563L78.5828 42.3558C78.57 42.0506 78.5445 41.7923 78.5033 41.5653C78.4437 41.2275 78.2862 40.982 78.0336 40.8301C77.8604 40.7237 77.5723 40.6499 77.1763 40.6059C77.815 40.4966 78.2479 40.2879 78.4707 39.9743C78.6963 39.6465 78.8113 39.1682 78.8113 38.5451C78.8014 37.3516 78.36 36.6732 77.4957 36.5057C77.2714 36.456 77.0231 36.4291 76.7548 36.4262ZM82.0628 36.4264L84.2725 43.7624V36.4264H85.371V44.9389H83.5345L81.3262 37.6824V44.9389H80.2249V36.4264H82.0628ZM89.9537 42.0352H88.0945L89.0539 37.5007L89.9537 42.0352ZM89.8458 36.4264H88.306L86.3432 44.9403H87.4785L87.893 42.9974H90.1708L90.5753 44.9403H91.8072L89.8458 36.4264ZM97.5679 36.4264V37.3872H95.5994V44.9389H94.4285V37.3872H92.4601V36.4264H97.5679ZM98.7785 36.4264H99.9479V44.9403H98.7785V36.4264ZM102.436 42.0181C102.44 42.7333 102.484 43.1988 102.562 43.4117C102.644 43.6275 102.798 43.7978 103.018 43.9212C103.239 44.0433 103.466 44.1072 103.699 44.1001C103.912 44.1072 104.118 44.0561 104.313 43.9496C104.685 43.7637 104.887 43.4401 104.924 42.9732C104.942 42.7092 104.955 42.3885 104.959 42.0195V39.1682C104.963 38.5523 104.907 38.1194 104.79 37.8696C104.603 37.4623 104.241 37.2636 103.696 37.265C103.487 37.265 103.29 37.309 103.104 37.3928C102.721 37.5574 102.51 37.8895 102.463 38.382C102.439 38.6076 102.427 38.8688 102.433 39.1668V42.0181H102.436ZM101.266 39.1725C101.269 38.4756 101.323 37.9661 101.422 37.6383C101.579 37.1288 101.925 36.7641 102.459 36.5455C102.843 36.3823 103.258 36.3042 103.702 36.3042C104.14 36.3042 104.556 36.3823 104.945 36.5455C105.467 36.7641 105.812 37.1288 105.971 37.6383C106.072 37.9605 106.126 38.4728 106.134 39.1725V42.0251C106.134 42.5417 106.112 42.9874 106.068 43.3564C105.936 44.4833 105.158 45.0538 103.736 45.0623C102.701 45.0623 102.01 44.7983 101.66 44.2704C101.394 43.873 101.262 43.125 101.268 42.0266V39.1725H101.266ZM111.452 43.7624L109.244 36.4264H107.407V44.9389H108.507V37.6824L110.717 44.9389H112.554V36.4264H111.452V43.7624ZM115.277 42.0352H117.138L116.239 37.5007L115.277 42.0352ZM115.486 36.4264H117.027L118.991 44.9403H117.758L117.353 42.9974H115.077L114.661 44.9403H113.524L115.486 36.4264ZM121.201 36.4264H120.03V44.9389H123.682V43.9795H121.201V36.4264Z" fill="#005B9D"/>
</svg>
