<?xml version="1.0" encoding="UTF-8"?>
<svg version="1.1" xmlns="http://www.w3.org/2000/svg" width="346" height="40">
<path d="M0 0 C8 0 8 0 10.28515625 1.37695312 C10.87167969 2.00537109 11.45820313 2.63378906 12.0625 3.28125 C12.71347656 3.95800781 13.36445313 4.63476562 14.03515625 5.33203125 C14.68355469 6.04746094 15.33195313 6.76289063 16 7.5 C17.01900391 8.57314453 17.01900391 8.57314453 18.05859375 9.66796875 C19.72450093 11.42772986 21.36488429 13.21159219 23 15 C23.33 10.05 23.66 5.1 24 0 C26.31 0 28.62 0 31 0 C31 8.58 31 17.16 31 26 C23 26 23 26 21.02197266 24.94604492 C20.5738623 24.46240479 20.12575195 23.97876465 19.6640625 23.48046875 C19.15746094 22.95259766 18.65085937 22.42472656 18.12890625 21.88085938 C17.38447266 21.04264648 17.38447266 21.04264648 16.625 20.1875 C16.10550781 19.64029297 15.58601562 19.09308594 15.05078125 18.52929688 C12.79677778 16.1267738 10.82960248 13.74440372 9 11 C8.67 15.95 8.34 20.9 8 26 C5.36 26 2.72 26 0 26 C0 17.42 0 8.84 0 0 Z " fill="#34BCF2" transform="translate(238,4)"/>
<path d="M0 0 C5.0428125 -0.0928125 5.0428125 -0.0928125 10.1875 -0.1875 C11.76374146 -0.22846802 11.76374146 -0.22846802 13.37182617 -0.27026367 C22.08459005 -0.34795924 22.08459005 -0.34795924 26 3 C27.50934217 6.01868434 27.17510672 8.67297229 27 12 C26.01 13.485 26.01 13.485 25 15 C24.34 15 23.68 15 23 15 C23.8971875 16.3303125 23.8971875 16.3303125 24.8125 17.6875 C26.61840247 20.42215231 28.33895911 23.17623048 30 26 C26.89504481 26.43469373 24.09118693 26.58807946 21 26 C18.44160618 24.03081203 16.61155093 21.79335494 15 19 C15 18.34 15 17.68 15 17 C12.69 17 10.38 17 8 17 C8 19.97 8 22.94 8 26 C5.36 26 2.72 26 0 26 C0 17.42 0 8.84 0 0 Z M8 6 C8 7.65 8 9.3 8 11 C9.62418745 11.08090971 11.24951745 11.13914995 12.875 11.1875 C13.77992188 11.22230469 14.68484375 11.25710937 15.6171875 11.29296875 C16.40351563 11.19628906 17.18984375 11.09960938 18 11 C18.66 10.01 19.32 9.02 20 8 C18.18806994 5.75675164 18.18806994 5.75675164 15.6171875 5.8046875 C14.71226562 5.82789063 13.80734375 5.85109375 12.875 5.875 C11.96492187 5.89304687 11.05484375 5.91109375 10.1171875 5.9296875 C9.41851562 5.95289063 8.71984375 5.97609375 8 6 Z " fill="#34BCF2" transform="translate(137,4)"/>
<path d="M0 0 C8.58 0 17.16 0 26 0 C26 1.98 26 3.96 26 6 C20.06 6 14.12 6 8 6 C8 7.32 8 8.64 8 10 C13.61 10 19.22 10 25 10 C25 11.98 25 13.96 25 16 C19.39 16 13.78 16 8 16 C8 17.32 8 18.64 8 20 C13.94 20 19.88 20 26 20 C26 21.98 26 23.96 26 26 C17.42 26 8.84 26 0 26 C0 17.42 0 8.84 0 0 Z " fill="#34BCF2" transform="translate(106,4)"/>
<path d="M0 0 C1.28648437 -0.02835937 2.57296875 -0.05671875 3.8984375 -0.0859375 C9.04705327 0.55089338 11.9450132 2.60247155 15.46875 6.3203125 C17.62411488 10.15045414 17.34793425 14.13110818 16.625 18.375 C14.63278115 22.24875887 11.68455501 24.83445092 7.625 26.375 C1.47476784 26.97810144 -5.94489377 27.65866076 -11.625 24.8125 C-15.39593971 21.47007616 -17.1889908 18.43252626 -17.5 13.3203125 C-17.26211428 9.3803303 -16.59274626 7.64571157 -14.0625 4.5 C-9.27462165 0.71423572 -6.17621202 0.06163884 0 0 Z M-9.375 10.375 C-10.04213166 13.93303554 -9.81167679 15.62074008 -8 18.75 C-3.92183349 21.27457927 -0.03429567 21.2392242 4.625 20.375 C7.94330353 18.4759044 7.94330353 18.4759044 9.625 15.375 C9.69418114 11.91594288 9.28663383 10.20204229 7.125 7.5 C1.2461513 4.85451808 -5.14137744 5.18539815 -9.375 10.375 Z " fill="#35BCF2" transform="translate(216.375,3.625)"/>
<path d="M0 0 C1.30066406 0.01546875 2.60132813 0.0309375 3.94140625 0.046875 C6.64589261 0.20400717 8.87564327 0.44167879 11.4375 1.25 C11.4375 3.56 11.4375 5.87 11.4375 8.25 C5.8275 7.59 0.2175 6.93 -5.5625 6.25 C-5.5625 6.91 -5.5625 7.57 -5.5625 8.25 C-4.83804688 8.35957031 -4.11359375 8.46914062 -3.3671875 8.58203125 C2.01061561 9.46399096 6.77106031 10.25869251 11.4375 13.25 C13.4375 16.25 13.4375 16.25 13.25 19.25 C12.42546725 22.29442863 11.89697654 23.38079783 9.4375 25.25 C6.3245419 26.80647905 3.03838167 26.43446048 -0.375 26.4375 C-1.44331055 26.45586914 -1.44331055 26.45586914 -2.53320312 26.47460938 C-6.6642489 26.48607389 -9.85017002 26.09522492 -13.5625 24.25 C-13.5625 22.27 -13.5625 20.29 -13.5625 18.25 C-12.82 18.415 -12.0775 18.58 -11.3125 18.75 C-6.05840599 19.45054587 -0.85498251 19.32707499 4.4375 19.25 C0.77577869 16.80885246 -2.61764731 16.18720483 -6.87109375 15.2265625 C-10.00935058 14.08786264 -11.51527565 12.87179911 -13.5625 10.25 C-13.625 6.6875 -13.625 6.6875 -12.5625 3.25 C-8.50175808 -0.0455648 -5.11597019 -0.10160815 0 0 Z " fill="#35BCF2" transform="translate(182.5625,3.75)"/>
<path d="M0 0 C5.0428125 -0.0928125 5.0428125 -0.0928125 10.1875 -0.1875 C11.76374146 -0.22846802 11.76374146 -0.22846802 13.37182617 -0.27026367 C21.99810528 -0.34718801 21.99810528 -0.34718801 26 3 C28.08606926 5.65499724 27.99879455 7.06750504 27.9375 10.5 C26.78603502 14.79880258 25.75400505 15.69754357 22 18 C19.23866047 18.28614917 16.91854388 18.38589883 14.1875 18.25 C13.49462891 18.23195313 12.80175781 18.21390625 12.08789062 18.1953125 C10.39132336 18.14851064 8.69547524 18.07677624 7 18 C7 20.64 7 23.28 7 26 C4.69 26 2.38 26 0 26 C0 17.42 0 8.84 0 0 Z M7 6 C7 7.98 7 9.96 7 12 C10.96 12 14.92 12 19 12 C19.33 10.35 19.66 8.7 20 7 C17.35541621 5.67770811 15.32238699 5.90322806 12.375 5.9375 C10.87066406 5.95103516 10.87066406 5.95103516 9.3359375 5.96484375 C8.17964844 5.98224609 8.17964844 5.98224609 7 6 Z " fill="#34BCF2" transform="translate(74,4)"/>
<path d="M0 0 C7.92 0 15.84 0 24 0 C24 1.98 24 3.96 24 6 C18.39 6 12.78 6 7 6 C7 7.32 7 8.64 7 10 C12.28 10 17.56 10 23 10 C23 11.98 23 13.96 23 16 C17.72 16 12.44 16 7 16 C7 19.3 7 22.6 7 26 C4.69 26 2.38 26 0 26 C0 17.42 0 8.84 0 0 Z " fill="#34BCF2" transform="translate(290,4)"/>
<path d="M0 0 C5.10880829 -0.70466321 5.10880829 -0.70466321 8 0 C10.49126669 2.37660588 12.25736814 5.04280654 14 8 C17.44393594 6.85202135 17.51554804 6.42528419 19.1875 3.4375 C21.38470456 0.13495328 21.38470456 0.13495328 24.1015625 -0.4609375 C26.3125 -0.4375 26.3125 -0.4375 30 0 C28.63687868 4.03940664 26.81031526 6.50713517 23.9375 9.625 C19.55177862 14.89103797 18.79507185 19.26298706 19 26 C16.36 26 13.72 26 11 26 C11.04382813 25.35675781 11.08765625 24.71351562 11.1328125 24.05078125 C11.10813431 15.4010758 7.51768834 10.94931958 2.15234375 4.65234375 C0 2 0 2 0 0 Z " fill="#34BCF2" transform="translate(316,4)"/>
<path d="M0 0 C5.28 0 10.56 0 16 0 C16 4.95 16 9.9 16 15 C13.71125827 16.33858524 11.41930344 17.67101014 9.125 19 C8.47402344 19.3815625 7.82304688 19.763125 7.15234375 20.15625 C2.2265625 23 2.2265625 23 0 23 C0 15.41 0 7.82 0 0 Z " fill="#35BCF2" transform="translate(40,17)"/>
<path d="M0 0 C5.28 0 10.56 0 16 0 C16 4.95 16 9.9 16 15 C13.71125827 16.33858524 11.41930344 17.67101014 9.125 19 C8.47402344 19.3815625 7.82304687 19.763125 7.15234375 20.15625 C2.2265625 23 2.2265625 23 0 23 C0 15.41 0 7.82 0 0 Z " fill="#35BCF2" transform="translate(20,17)"/>
<path d="M0 0 C5.28 0 10.56 0 16 0 C16 4.95 16 9.9 16 15 C13.71125827 16.33858524 11.41930344 17.67101014 9.125 19 C8.47402344 19.3815625 7.82304688 19.763125 7.15234375 20.15625 C2.2265625 23 2.2265625 23 0 23 C0 15.41 0 7.82 0 0 Z " fill="#35BCF2" transform="translate(0,17)"/>
<path d="M0 0 C2.5 1.5 2.5 1.5 4 4 C4.791013 8.02098277 4.62153384 10.96411027 2.5 14.5 C-1.03588973 16.62153384 -3.97901723 16.791013 -8 16 C-10.5 14.5 -10.5 14.5 -12 12 C-12.791013 7.97901723 -12.62153384 5.03588973 -10.5 1.5 C-6.96411027 -0.62153384 -4.02098277 -0.791013 0 0 Z " fill="#35BCF2" transform="translate(52,0)"/>
<path d="M0 0 C2.5 1.5 2.5 1.5 4 4 C4.791013 8.02098277 4.62153384 10.96411027 2.5 14.5 C-1.03588973 16.62153384 -3.97901723 16.791013 -8 16 C-10.5 14.5 -10.5 14.5 -12 12 C-12.791013 7.97901723 -12.62153384 5.03588973 -10.5 1.5 C-6.96411027 -0.62153384 -4.02098277 -0.791013 0 0 Z " fill="#35BCF2" transform="translate(32,0)"/>
<path d="M0 0 C2.5 1.5 2.5 1.5 4 4 C4.791013 8.02098277 4.62153384 10.96411027 2.5 14.5 C-1.03588973 16.62153384 -3.97901723 16.791013 -8 16 C-10.5 14.5 -10.5 14.5 -12 12 C-12.791013 7.97901723 -12.62153384 5.03588973 -10.5 1.5 C-6.96411027 -0.62153384 -4.02098277 -0.791013 0 0 Z " fill="#35BCF2" transform="translate(12,0)"/>
<path d="M0 0 C2.31 0 4.62 0 7 0 C7 8.58 7 17.16 7 26 C4.69 26 2.38 26 0 26 C0 17.42 0 8.84 0 0 Z " fill="#34BDF3" transform="translate(276,4)"/>
</svg>
